<?xml version="1.0" encoding="UTF-8"?>
<svg id="Foreground" xmlns="http://www.w3.org/2000/svg" version="1.1" xmlns:xlink="http://www.w3.org/1999/xlink" viewBox="0 0 817.72 174.31">
  <!-- Generator: Adobe Illustrator 30.6.0, SVG Export Plug-In . SVG Version: 2.1.4 Build 109)  -->
  <defs>
    <style>
      .st0 {
        fill: #90307b;
      }

      .st1 {
        fill: #676767;
      }

      .st2 {
        fill: #ef7735;
      }

      .st3 {
        fill: #fff;
      }

      .st4 {
        fill: url(#Adsız_degrade_4);
      }

      .st5 {
        fill: #3bad5d;
      }

      .st6, .st7 {
        fill: none;
      }

      .st8 {
        fill: #0d8fbb;
      }

      .st9 {
        fill: #303d7f;
      }

      .st10 {
        fill: #51764a;
      }

      .st11 {
        fill: #0e3b83;
      }

      .st12 {
        fill: #39b8b8;
      }

      .st13 {
        fill: #5b5a5d;
      }

      .st7 {
        stroke: #5c5b5d;
        stroke-miterlimit: 10;
        stroke-width: 2px;
      }

      .st14 {
        fill: #f8ac33;
      }

      .st15 {
        fill: #a53b8e;
      }

      .st16 {
        fill: #353535;
      }

      .st17 {
        fill: #e72e6f;
      }

      .st18 {
        fill: #583d91;
      }

      .st19 {
        clip-path: url(#clippath);
      }

      .st20 {
        fill: #e73738;
      }
    </style>
    <clipPath id="clippath">
      <path class="st6" d="M302.66,27.8l59.07,49.45c3.07-1.33,5.83-3.28,8.12-5.72,2.76-2.89,6.23-5.02,10.07-6.15,5.74-1.76,11.94-1.21,17.28,1.53,8.6-27.02-6.33-55.89-33.35-64.49-23.86-7.59-49.71,3.13-61.19,25.38h0Z"/>
    </clipPath>
    <linearGradient id="Adsız_degrade_4" data-name="Adsız degrade 4" x1="-3515.05" y1="-747.66" x2="-3512.12" y2="-747.66" gradientTransform="translate(116664.8637 -24712.0022) scale(33.104 -33.104)" gradientUnits="userSpaceOnUse">
      <stop offset="0" stop-color="#2975bb"/>
      <stop offset=".52" stop-color="#138bcc"/>
      <stop offset="1" stop-color="#0a9cd8"/>
    </linearGradient>
  </defs>
  <path class="st11" d="M46.28,115.29l-.22,2.27c-.44-.18-.88-.32-1.29-.43-.21-.05-.41-.08-.61-.11-.2-.03-.4-.04-.59-.04-.59,0-1.06.1-1.39.29-.33.19-.5.45-.5.78,0,.23.09.43.25.6.17.17.42.32.77.44l.49.16c1.26.4,2.1.76,2.51,1.08.38.29.67.63.85,1.03.18.39.27.84.27,1.36,0,1.21-.4,2.13-1.21,2.77-.81.64-1.97.97-3.5.97-.54,0-1.09-.04-1.65-.12s-1.11-.19-1.67-.35l.25-2.46c.52.24,1.02.42,1.5.53.23.06.47.1.7.13.24.03.47.05.68.05.57,0,1.03-.11,1.37-.33.34-.22.51-.51.51-.88,0-.46-.54-.87-1.61-1.25l-.6-.21c-1.04-.37-1.79-.81-2.24-1.31-.45-.5-.68-1.14-.68-1.92,0-1.1.4-1.95,1.19-2.55.79-.6,1.92-.9,3.4-.9.56,0,1.08.03,1.57.1.25.03.5.07.73.12.23.05.47.11.72.18M53.79,117.38h2.73v8.81h2.94v-8.81h2.73v-2.21h-8.4v2.21ZM75.07,121.76h-2.81l1.43-4.13,1.38,4.13ZM67.8,126.19h2.91l.82-2.33h4.24l.78,2.33h3.14l-4.17-11.02h-3.54l-4.18,11.02ZM86.5,126.19h2.65v-5.82c0-.19,0-.42-.02-.7-.02-.27-.03-.52-.05-.75-.04-.39-.07-.7-.1-.95s-.07-.53-.12-.87c.13.48.25.88.36,1.21.14.39.28.73.43,1.02l3.31,6.85h3.65v-11.02h-2.65v6.24c0,.35.02.76.07,1.22.04.47.11.97.21,1.52-.09-.26-.18-.53-.26-.8-.12-.36-.19-.58-.22-.65-.16-.42-.28-.73-.38-.93l-3.19-6.61h-3.66v11.02ZM109.04,121.57c.56,0,.99.11,1.27.32.28.21.43.53.43.95s-.16.76-.47.98c-.31.22-.77.34-1.36.34h-1.15v-2.59h1.29ZM108.78,117.16c.56,0,.99.1,1.28.3.29.2.43.5.43.89,0,.43-.15.75-.46.96-.31.21-.77.31-1.39.31h-.89v-2.46h1.03ZM104.88,126.19h4.28c1.54,0,2.68-.25,3.42-.75.74-.5,1.11-1.26,1.11-2.3,0-.7-.2-1.27-.61-1.73-.41-.45-.99-.75-1.74-.89.67-.19,1.18-.49,1.53-.91.35-.42.53-.95.53-1.59,0-.95-.34-1.66-1.01-2.14-.68-.48-1.68-.72-3-.72h-4.51v11.02ZM121.55,121.59c0,1.61.39,2.82,1.18,3.64.79.81,1.96,1.22,3.51,1.22s2.75-.4,3.53-1.21c.78-.81,1.17-2.02,1.17-3.65v-6.41h-2.79v6.41c0,.87-.16,1.54-.49,1.99-.32.45-.8.68-1.42.68s-1.06-.21-1.34-.64c-.28-.42-.42-1.1-.42-2.03v-6.41h-2.93v6.41ZM139.22,126.19h7.36v-2.18h-4.43v-8.84h-2.94v11.02ZM27.72,114.2h2.94v-1.47h-2.94v1.47ZM27.72,126.19h2.94v-11.02h-2.94v11.02ZM13.72,145.84c.68.76,1.02,1.72,1.02,2.89,0,1.73-.62,3.01-1.86,3.84-1.23.83-3.14,1.25-5.72,1.25H0v-18.43h7.55c2.22,0,3.9.4,5.02,1.2,1.13.8,1.69,1.99,1.69,3.58,0,1.07-.29,1.96-.88,2.66-.59.7-1.44,1.21-2.57,1.52,1.25.23,2.22.73,2.9,1.49M4.81,142.83h1.49c1.04,0,1.81-.18,2.33-.53.51-.35.77-.89.77-1.6,0-.66-.24-1.15-.73-1.49-.48-.33-1.2-.5-2.14-.5h-1.73v4.12ZM9.8,148.22c0-.7-.24-1.23-.71-1.59-.48-.36-1.18-.54-2.13-.54h-2.15v4.33h1.93c1,0,1.75-.19,2.28-.56.52-.38.79-.92.79-1.64M45.11,143.18l-3.68-7.79h-5.58l6.61,11.58v6.85h4.91v-6.9l6.69-11.53h-5.29l-3.67,7.79ZM67.1,146.12c0,1.46-.27,2.57-.81,3.33-.54.76-1.33,1.14-2.38,1.14s-1.78-.35-2.24-1.06c-.47-.71-.7-1.84-.7-3.4v-10.73h-4.91v10.73c0,2.7.66,4.73,1.98,6.09s3.28,2.04,5.87,2.04,4.61-.67,5.91-2.02c1.3-1.35,1.96-3.39,1.96-6.11v-10.73h-4.68v10.73ZM69.4,131.29h-4.67v2.46h4.67v-2.46ZM63.09,131.29h-4.67v2.46h4.67v-2.46ZM25.19,131.29h-4.67v2.46h4.67v-2.46ZM29.2,146.12c0,1.46-.27,2.57-.81,3.33-.54.76-1.33,1.14-2.38,1.14s-1.78-.35-2.24-1.06c-.47-.71-.7-1.84-.7-3.4v-10.73h-4.91v10.73c0,2.7.66,4.73,1.98,6.09,1.32,1.36,3.28,2.04,5.87,2.04s4.61-.67,5.91-2.02c1.3-1.35,1.96-3.39,1.96-6.11v-10.73h-4.68v10.73ZM31.5,131.29h-4.67v2.46h4.67v-2.46ZM92.45,135.39h-5.5l-5.71,7.97v-7.97h-4.91v18.43h4.91v-8.55l5.8,8.55h6.11l-7.47-9.96,6.77-8.47ZM116.79,146.07h7.45v-3.51h-7.45v-3.72h7.89v-3.45h-12.8v18.43h13.1v-3.56h-8.18v-4.2ZM139.83,142.43h-5.74v-7.04h-4.91v18.43h4.91v-7.7h5.74v7.7h4.91v-18.43h-4.91v7.04ZM149.34,133.75h4.91v-2.46h-4.91v2.46ZM149.34,153.82h4.91v-18.44h-4.91v18.44ZM174.31,153.82h-5.13l-1.62-5.05c-.26-.8-.61-1.36-1.06-1.68-.44-.32-1.15-.47-2.11-.47h-.71v7.2h-4.81v-18.43h7.33c2.45,0,4.26.39,5.44,1.18,1.18.79,1.76,1.99,1.76,3.62,0,1.19-.31,2.16-.93,2.93-.62.77-1.52,1.29-2.7,1.56.96.35,1.74,1.36,2.34,3.02l2.2,6.12ZM168.6,141.05c0-.83-.3-1.44-.89-1.83-.59-.39-1.53-.58-2.81-.58h-1.22v4.73h1.72c1.07,0,1.87-.19,2.4-.58.53-.38.79-.96.79-1.73M106.48,144c-.69-.53-2.09-1.13-4.2-1.81l-.82-.26c-.58-.2-1.01-.44-1.29-.73-.28-.29-.42-.63-.42-1.01,0-.55.28-.98.84-1.3.56-.32,1.33-.48,2.33-.48.33,0,.66.02.99.07.33.04.67.1,1.02.18.7.17,1.42.41,2.16.71l.36-3.8c-.41-.12-.81-.22-1.2-.3-.39-.08-.8-.14-1.23-.19-.81-.11-1.69-.17-2.62-.17-2.46,0-4.36.5-5.68,1.51-1.33,1-1.99,2.43-1.99,4.26,0,1.31.38,2.38,1.13,3.22.76.84,2.01,1.57,3.75,2.19l1,.35c1.8.63,2.7,1.33,2.7,2.09,0,.62-.28,1.12-.85,1.48-.57.36-1.33.55-2.29.55-.36,0-.74-.03-1.14-.08-.4-.05-.79-.13-1.18-.22-.81-.2-1.65-.5-2.51-.9l-.42,4.11c.93.26,1.85.45,2.79.58.52.07,1.04.12,1.55.15l-.2,2.07h4.67l.24-2.48c.92-.27,1.72-.64,2.36-1.15,1.35-1.09,2.02-2.65,2.02-4.66,0-.86-.15-1.61-.46-2.27-.31-.66-.78-1.23-1.42-1.71M36.03,169.28c.41.45.61,1.03.61,1.73,0,1.03-.37,1.8-1.11,2.3-.74.5-1.88.75-3.42.75h-4.29v-11.03h4.51c1.33,0,2.33.24,3,.72.67.48,1.01,1.19,1.01,2.14,0,.64-.18,1.17-.53,1.59-.35.42-.86.72-1.54.91.75.14,1.33.44,1.74.89M30.7,167.48h.89c.62,0,1.09-.11,1.39-.32.31-.21.46-.53.46-.96,0-.39-.14-.69-.44-.89-.29-.2-.72-.3-1.28-.3h-1.03v2.46ZM33.69,170.7c0-.42-.14-.73-.43-.95-.28-.21-.71-.32-1.27-.32h-1.29v2.59h1.16c.59,0,1.05-.11,1.36-.34.31-.22.47-.55.47-.98M44.76,169.42h4.45v-2.1h-4.45v-2.22h4.72v-2.07h-7.65v11.03h7.83v-2.13h-4.9v-2.51ZM58.27,163.03h-2.94v11.03h7.37v-2.18h-4.43v-8.85ZM70.47,169.42h4.45v-2.1h-4.45v-2.22h4.71v-2.07h-7.65v11.03h7.83v-2.13h-4.89v-2.51ZM90.57,165.75c.41.79.61,1.69.61,2.72,0,1.14-.21,2.1-.64,2.9-.42.79-1.08,1.45-1.96,1.97-.43.25-.98.43-1.67.54-.33.05-.73.09-1.2.12-.47.03-.98.05-1.54.05h-3.5v-11.03h3.86c1.02,0,1.86.06,2.54.19.67.13,1.23.32,1.66.59.8.51,1.41,1.16,1.81,1.95M88.17,168.48c0-1.06-.29-1.87-.88-2.45-.59-.58-1.42-.87-2.52-.87h-1.12v6.69h1.27c1.03,0,1.83-.29,2.39-.88.56-.59.84-1.42.84-2.49M107.95,167.69l-2.2-4.66h-3.34l3.96,6.93v4.1h2.94v-4.13l4-6.9h-3.16l-2.2,4.66ZM120.33,169.42h4.45v-2.1h-4.45v-2.22h4.72v-2.07h-7.65v11.03h7.83v-2.13h-4.89v-2.51ZM137.3,168.18c-.41-.32-1.25-.68-2.51-1.08l-.49-.16c-.35-.12-.6-.27-.77-.44-.17-.17-.25-.37-.25-.6,0-.33.17-.59.5-.78.33-.19.8-.29,1.39-.29.2,0,.39.01.59.04.2.03.4.06.61.11.42.1.85.25,1.29.43l.22-2.28c-.24-.07-.48-.13-.72-.18-.24-.05-.48-.09-.73-.12-.48-.07-1.01-.1-1.57-.1-1.47,0-2.61.3-3.4.9-.79.6-1.19,1.45-1.19,2.55,0,.78.23,1.42.68,1.92.45.5,1.2.94,2.24,1.31l.6.21c1.07.38,1.61.8,1.61,1.25,0,.37-.17.67-.51.89-.34.22-.79.33-1.37.33-.22,0-.44-.02-.68-.05-.24-.03-.47-.07-.71-.13-.48-.12-.99-.3-1.5-.54l-.25,2.46c.55.15,1.11.27,1.67.35.56.08,1.11.12,1.65.12,1.53,0,2.7-.32,3.51-.97.81-.64,1.21-1.57,1.21-2.78,0-.51-.09-.97-.28-1.36-.18-.39-.47-.74-.85-1.03M95.82,174.05h2.94v-11.02h-2.94v11.02ZM95.82,162.05h2.94v-1.47h-2.94v1.47ZM143.54,162.05h2.94v-1.47h-2.94v1.47ZM143.54,174.05h2.94v-11.02h-2.94v11.02ZM67.54,67.64v-2.82h-2.82v2.82h-2.82v-2.82h-2.82v2.82h-2.83v-2.82h-2.82v2.82c0,18.11,14.26,32.88,32.17,33.7v-14.15c-10.1-.8-18.05-9.25-18.05-19.55M118.07,64.81h2.82v2.82c0,18.11-14.26,32.88-32.17,33.7v-14.15c10.1-.8,18.05-9.25,18.05-19.55v-2.82h2.82v2.82h2.82v-2.82h2.83v2.82h2.82v-2.82ZM70.67,51.85h-17.19c.94-3.87,4.43-6.75,8.6-6.75s7.65,2.88,8.6,6.75M103.64,51.85c.94-3.87,4.43-6.75,8.6-6.75s7.65,2.88,8.59,6.75h-17.19ZM70.67,62.49h-20.39c1.12-4.59,5.26-8,10.19-8s9.08,3.41,10.19,8M113.83,54.48c4.94,0,9.08,3.41,10.19,8h-20.39c1.12-4.59,5.26-8,10.19-8M103.62,67.85h0v-25.34l2.35-2.34v-2.35h-2.35v-9.49l-2.35-14.12-2.35,14.12v9.49h-4.71v-9.51l2.35-2.34v-2.35h-2.35v-9.49L91.86,0l-2.35,14.12v9.49h-4.71v-9.49L82.45,0l-2.35,14.12v9.49h-2.35v2.35l2.35,2.34v9.51h-4.71v-9.49l-2.35-14.12-2.35,14.12v9.49h-2.35v2.35l2.35,2.34v25.13c0,9.1,7.38,16.47,16.47,16.47s16.35-7.26,16.47-16.26M100.56,70.23h-8.91l4.45-7.72,4.46,7.72ZM94.22,42.51l2.35-2.34,2.35,2.34v13.6c-1.35-1.38-2.94-2.52-4.71-3.36v-10.24ZM91.63,54.77l4.46,7.72h-8.91l4.45-7.72ZM84.8,28.31l2.35-2.34,2.35,2.34v9.51h-4.71v-9.51ZM84.8,42.51l2.35-2.34,2.35,2.34v8.82c-.77-.11-1.56-.17-2.35-.17s-1.58.06-2.35.17v-8.82ZM82.68,54.77l4.46,7.72h-8.91l4.45-7.72ZM75.39,42.51l2.35-2.34,2.35,2.34v10.24c-1.77.84-3.36,1.98-4.71,3.36v-13.6ZM73.75,70.23l4.45-7.72,4.45,7.72h-8.91ZM78.23,77.98l4.45-7.72,4.46,7.72h-8.91ZM82.7,70.23l4.45-7.72,4.46,7.72h-8.91ZM87.17,77.98l4.45-7.72,4.46,7.72h-8.91Z"/>
  <g id="Layer_2">
    <g id="Layer_1-2">
      <g>
        <g class="st19">
          <rect class="st4" x="302.66" y=".01" width="96.95" height="77.24"/>
        </g>
        <path class="st17" d="M296.93,51.35c0,1.58.07,3.15.22,4.69h-35.07l6.95-39.73c.81-4.63,5.23-7.73,9.86-6.92,1.47.26,2.85.9,3.99,1.85l19.78,16.55c-3.77,7.27-5.74,15.35-5.73,23.54"/>
        <path class="st15" d="M361.73,77.25c-8.45,3.7-18.26,2.33-25.36-3.56v-9.12c0-4.71-3.82-8.53-8.53-8.53h-30.69c-.15-1.55-.22-3.11-.22-4.69-.01-8.19,1.95-16.27,5.73-23.54l59.07,49.45Z"/>
        <path class="st20" d="M335.08,100.96c.43.12.86.23,1.29.32v-.8l-1.29.48Z"/>
        <path class="st12" d="M393.41,109.58c-.69.21-1.44.42-2.13.56-.75.15-1.54.36-2.28.59-12.26,3.75-19.49,16.38-16.53,28.85,3.55,15.21-5.89,30.42-21.1,33.97-14.49,3.39-29.13-5.04-33.48-19.28-.39-1.25-.7-2.53-.95-3.82h10.9c4.71,0,8.53-3.82,8.53-8.54h0v-40.64c26.15,6.23,52.67-8.76,60.83-34.37,11.36,5.82,15.85,19.75,10.03,31.1-2.85,5.57-7.84,9.74-13.82,11.57"/>
        <path class="st8" d="M397.2,66.91c-8.16,25.61-34.68,40.6-60.82,34.38v-.8l23.13-8.45c4.42-1.61,6.69-6.5,5.08-10.92-.51-1.4-1.39-2.65-2.53-3.61l-.31-.26c3.07-1.33,5.83-3.28,8.12-5.72,2.76-2.89,6.23-5.01,10.07-6.15,2.19-.67,4.46-1.01,6.75-1.01,3.66,0,7.27.87,10.53,2.55"/>
        <path class="st18" d="M359.5,92.04l-23.13,8.45v-26.79c4.39,3.62,9.9,5.61,15.6,5.61,2.4,0,4.79-.36,7.09-1.06.91-.28,1.81-.61,2.68-.99l.31.26c3.61,3.02,4.08,8.39,1.06,11.99-.96,1.15-2.2,2.02-3.61,2.53"/>
        <path class="st20" d="M335.08,100.96c.43.12.86.23,1.29.32v-.8l-1.29.48Z"/>
        <path class="st5" d="M336.37,101.29v40.64c0,4.71-3.82,8.54-8.53,8.54h-10.91c-1.55-8.12.71-13.28,2.89-17.36,2.81-5.49,3.32-11.88,1.43-17.75-.86-2.84-2.25-5.5-4.08-7.84l17.91-6.54c.43.12.86.23,1.29.32"/>
        <path class="st9" d="M336.37,73.69v26.79l-1.29.47c-13.64-3.66-25.19-12.75-31.94-25.16,2.4-4.47,6.48-7.81,11.34-9.28,1.85-.57,3.77-.85,5.71-.85,5.28-.02,10.33,2.14,13.98,5.96.69.73,1.43,1.42,2.21,2.07"/>
        <path class="st0" d="M336.37,64.58v9.11c-.78-.64-1.52-1.33-2.21-2.06-3.64-3.82-8.7-5.98-13.98-5.96-1.93,0-3.86.29-5.71.86-4.86,1.47-8.94,4.81-11.34,9.28-3.32-6.11-5.36-12.83-5.99-19.75h30.69c4.71,0,8.53,3.82,8.53,8.53h0"/>
        <path class="st10" d="M335.08,100.96l-17.91,6.54c-1.87-2.39-4.17-4.4-6.79-5.93-8.98-5.22-12.19-16.64-7.24-25.78,6.75,12.41,18.29,21.51,31.94,25.16"/>
        <path class="st2" d="M317.17,107.51l-54.63,19.96c-4.41,1.62-9.3-.65-10.92-5.06-.52-1.41-.65-2.92-.39-4.4l10.84-61.96h35.07c.63,6.93,2.66,13.65,5.99,19.76-4.95,9.14-1.74,20.55,7.24,25.78,2.62,1.53,4.92,3.54,6.79,5.93"/>
        <path class="st14" d="M319.83,133.1c-2.18,4.08-4.44,9.24-2.89,17.36h-66.44c-4.71,0-8.53-3.82-8.53-8.54,0,0,0,0,0,0v-77.34c0-4.71,3.82-8.53,8.53-8.53h11.58l-10.84,61.96c-.81,4.63,2.28,9.04,6.91,9.85,1.47.26,2.99.12,4.39-.39l54.63-19.96c1.84,2.34,3.22,4.99,4.08,7.84,1.89,5.87,1.38,12.26-1.43,17.75"/>
        <path class="st3" d="M376.21,56.01h-17.72l-23.85,62.18h15.5l4.71-13.06h24.7l3.09,8.6c1.96-1.3,4.1-2.31,6.35-3,.75-.24,1.51-.44,2.28-.6.69-.14,1.44-.35,2.13-.56,1-.3,1.98-.67,2.93-1.12l-20.11-52.45ZM359.65,91.73l7.55-20.96,7.55,20.96h-15.1Z"/>
        <path class="st3" d="M332.26,91.57c1.97-1.78,3.49-3.99,4.47-6.46,1.03-2.66,1.54-5.5,1.51-8.35.04-2.91-.48-5.79-1.51-8.51-.96-2.5-2.49-4.74-4.47-6.55-2.13-1.9-4.63-3.33-7.35-4.2-3.29-1.05-6.72-1.55-10.17-1.49h-26.65v62.18h14.84v-21.01h11.94c3.42.06,6.82-.44,10.08-1.47,2.7-.86,5.19-2.27,7.3-4.15M320.84,82.13c-1.53,1.21-3.64,1.82-6.33,1.82h-11.59v-14.48h11.59c2.69,0,4.8.62,6.33,1.85,1.53,1.23,2.29,3.04,2.29,5.44,0,2.37-.76,4.16-2.29,5.37"/>
        <path class="st3" d="M263.28,50c.79.79,1.74,1.42,2.78,1.84,1.1.45,2.28.68,3.46.67,1.18.01,2.35-.21,3.44-.67,2.08-.87,3.73-2.52,4.59-4.59.45-1.08.68-2.24.67-3.4.01-1.19-.22-2.36-.67-3.46-.42-1.04-1.05-1.98-1.85-2.78-.79-.79-1.72-1.42-2.75-1.87-1.09-.47-2.26-.7-3.44-.69-1.19-.01-2.37.22-3.46.69-.16.07-.59.34-.74.42l-2.39,13.44s.31.35.36.4"/>
        <polygon class="st3" points="276.9 56.02 262.08 56.02 262.08 56.04 262.06 56.04 262.06 118.2 276.9 118.2 276.9 56.02"/>
        <path class="st13" d="M429.91,79.04h-5.34v-22.38h5.34v22.38ZM425.01,54.49c.29.29.63.51,1,.67.4.16.82.24,1.24.24.43,0,.85-.08,1.24-.24.37-.16.71-.38.99-.67.59-.58.92-1.38.9-2.21,0-.43-.08-.85-.24-1.24-.16-.37-.38-.71-.67-1-.28-.29-.62-.51-.99-.67-.39-.17-.82-.25-1.24-.25-.84,0-1.65.33-2.24.92-.28.29-.51.63-.66,1-.16.39-.25.82-.24,1.24,0,.83.32,1.63.9,2.21M441.74,75.13c-.53.2-1.11.29-1.68.26-1.01.01-2.02-.12-3-.38-.89-.25-1.74-.62-2.53-1.09l-1.74,3.87c.48.3.98.55,1.52.75.58.21,1.17.38,1.77.51.64.13,1.29.23,1.94.29.67.06,1.34.1,2.01.1,1.03.01,2.06-.11,3.06-.38.82-.21,1.6-.58,2.28-1.09.61-.45,1.09-1.04,1.42-1.73.33-.72.5-1.51.49-2.31.05-1.2-.42-2.37-1.3-3.19-1.09-.89-2.42-1.44-3.83-1.58l-1.15-.18c-.62-.09-1.23-.21-1.84-.37-.46-.13-.69-.36-.69-.69,0-.29.16-.56.42-.69.44-.21.92-.3,1.41-.27.43,0,.85.04,1.27.11.44.07.89.16,1.33.26.45.1.89.23,1.33.38s.85.3,1.23.46l1.39-3.9c-.64-.25-1.23-.46-1.78-.63s-1.09-.31-1.61-.42c-.53-.1-1.06-.18-1.59-.23-.54-.05-1.13-.07-1.77-.07-.97-.01-1.93.11-2.86.35-.77.2-1.5.55-2.13,1.02-.57.43-1.03,1-1.33,1.65-.31.7-.47,1.46-.46,2.22-.07,1.25.42,2.47,1.34,3.33.9.8,2.29,1.34,4.18,1.61l.91.13c.65.08,1.28.23,1.9.43.38.15.58.38.58.69,0,.34-.2.64-.51.76M451.39,73.01c-.01.9.11,1.8.36,2.67.22.75.59,1.44,1.11,2.03.52.57,1.18,1.02,1.9,1.29.87.32,1.8.48,2.73.46.58,0,1.16-.04,1.73-.13.49-.08.98-.2,1.46-.36.43-.15.85-.33,1.26-.55.39-.21.77-.45,1.13-.71l-1.73-3.9c-.42.25-.86.47-1.3.67-.45.2-.93.31-1.42.31-.3,0-.59-.04-.88-.12-.26-.08-.5-.22-.7-.41-.21-.21-.38-.47-.47-.75-.12-.37-.18-.75-.17-1.14v-4.59h5.36v-4.43h-5.36v-4.58h-5v4.57h-2.93v4.43h2.93v5.23ZM464.35,74.42c-.37-1.04-.56-2.14-.55-3.25,0-1.1.18-2.19.55-3.23.34-.96.86-1.85,1.53-2.62.64-.74,1.43-1.34,2.31-1.76.91-.43,1.91-.65,2.92-.64,1.75-.07,3.43.73,4.49,2.13v-1.69h4.84v15.68h-4.84v-1.7c-.49.63-1.11,1.14-1.81,1.52-.83.42-1.76.62-2.69.59-1,0-2-.21-2.9-.64-.88-.42-1.67-1.02-2.31-1.76-.67-.78-1.19-1.67-1.53-2.63M468.94,71.18c0,.49.08.97.24,1.42.15.42.38.81.68,1.14.29.33.65.59,1.06.76.87.36,1.85.36,2.72,0,.4-.17.77-.43,1.07-.75.3-.33.54-.72.69-1.14.34-.93.34-1.94,0-2.87-.15-.42-.39-.81-.69-1.14-.3-.32-.66-.58-1.07-.75-.87-.36-1.85-.36-2.72,0-.4.17-.76.43-1.06.76-.3.33-.53.72-.68,1.14-.16.46-.25.94-.24,1.42M493.96,70.51v8.52h5v-10.29c.01-.83-.13-1.66-.43-2.44-.27-.68-.67-1.3-1.18-1.83-.5-.5-1.1-.89-1.76-1.15-.7-.27-1.45-.4-2.2-.4-.95-.02-1.89.17-2.75.57-.8.41-1.47,1.04-1.92,1.82v-1.97h-4.79v15.68h5v-8.44c0-.45.06-.9.2-1.33.12-.34.31-.66.55-.93.23-.24.5-.43.81-.55.31-.12.65-.18.98-.18.69-.04,1.36.24,1.82.75.48.61.71,1.37.66,2.15M518.45,67.94c.37,1.03.56,2.13.55,3.23,0,1.11-.18,2.21-.55,3.25-.34.96-.86,1.86-1.53,2.63-.64.74-1.43,1.34-2.32,1.76-.91.43-1.9.65-2.91.64-1.75.08-3.43-.7-4.49-2.09v1.68h-4.83v-23.02h4.99v8.84c1.06-1.29,2.66-2.01,4.33-1.94,1.01,0,2,.21,2.91.64.89.42,1.67,1.02,2.32,1.76.67.77,1.18,1.66,1.53,2.62M513.85,71.18c0-.48-.08-.97-.24-1.42-.15-.42-.38-.81-.68-1.14-.3-.33-.66-.59-1.06-.76-.43-.18-.9-.28-1.37-.27-.47,0-.93.09-1.35.27-.4.17-.76.43-1.05.75-.3.33-.53.72-.69,1.14-.33.93-.33,1.94,0,2.87.15.42.39.81.69,1.14.29.32.65.58,1.05.75.43.19.89.28,1.35.27.47,0,.94-.09,1.37-.27.41-.17.77-.43,1.06-.76.3-.33.53-.72.68-1.14.16-.46.25-.94.24-1.42M523.78,77.72c.71.6,1.53,1.04,2.41,1.3.96.29,1.95.43,2.95.42,1,0,1.99-.14,2.94-.42.88-.26,1.7-.71,2.41-1.3.7-.61,1.26-1.37,1.62-2.22.42-1.01.62-2.09.59-3.18v-8.97h-4.98v8.52c0,.44-.06.88-.19,1.29-.11.34-.29.65-.53.91-.23.24-.51.42-.82.53-.67.23-1.39.23-2.06,0-.31-.11-.59-.29-.81-.53-.24-.26-.42-.57-.54-.91-.14-.42-.2-.85-.19-1.29v-8.52h-5v8.95c-.03,1.09.18,2.18.59,3.19.36.86.92,1.62,1.62,2.23M540.11,79.04h5.01v-23.02h-5.01v23.02ZM424.54,86.39h9.59c1.24-.02,2.48.16,3.66.54.98.31,1.88.83,2.64,1.51.71.65,1.26,1.46,1.61,2.36.37.98.56,2.02.55,3.06.01,1.03-.17,2.05-.55,3-.35.89-.9,1.68-1.61,2.33-.76.68-1.66,1.19-2.63,1.5-1.17.37-2.4.55-3.63.53h-4.3v7.56h-5.34v-22.38ZM429.87,96.45h4.17c.81.05,1.62-.18,2.28-.66.57-.48.87-1.19.82-1.93.05-.75-.25-1.47-.82-1.96-.66-.48-1.46-.72-2.28-.67h-4.17v5.22ZM445.32,108.77h5.01v-23.02h-5.01v23.02ZM457.38,108.54c-.88-.42-1.67-1.02-2.31-1.76-.67-.77-1.19-1.67-1.53-2.63-.37-1.04-.56-2.15-.55-3.25,0-1.1.18-2.19.55-3.23.34-.96.86-1.85,1.53-2.62.64-.74,1.43-1.34,2.31-1.76.91-.43,1.91-.65,2.92-.64,1.75-.07,3.43.72,4.49,2.12v-1.7h4.84v15.69h-4.84v-1.7c-.49.63-1.11,1.14-1.81,1.52-.84.42-1.76.62-2.69.59-1,0-1.99-.21-2.9-.64M458.14,100.92c0,.48.08.96.24,1.42.15.42.38.81.68,1.14.29.32.65.58,1.05.76.43.19.9.28,1.37.27.46,0,.92-.09,1.35-.27.4-.18.76-.43,1.06-.75.3-.33.54-.72.69-1.14.34-.93.34-1.95,0-2.88-.16-.42-.39-.81-.69-1.14-.3-.32-.66-.57-1.06-.75-.43-.18-.89-.27-1.35-.27-.47,0-.94.09-1.37.27-.4.18-.76.43-1.05.76-.3.33-.53.72-.68,1.15-.16.46-.24.94-.24,1.42M478.13,100.33c0-.45.06-.9.2-1.33.12-.34.31-.66.55-.93.23-.24.5-.42.81-.54.31-.12.65-.18.98-.18.69-.04,1.35.23,1.82.74.48.61.71,1.38.66,2.15v8.53h5v-10.3c.01-.83-.14-1.66-.43-2.44-.26-.68-.66-1.3-1.17-1.83-.5-.5-1.1-.89-1.76-1.15-.7-.27-1.45-.4-2.2-.4-.95-.02-1.89.17-2.75.57-.8.41-1.47,1.04-1.92,1.82v-1.97h-4.8v15.69h5v-8.44ZM496.57,85.75h-5v23.02h5v-23.02ZM511.03,93.09h4.84v15.69h-4.84v-1.7c-.49.63-1.11,1.15-1.82,1.52-.83.42-1.76.62-2.69.59-1,0-1.99-.21-2.9-.64-.88-.42-1.67-1.02-2.31-1.76-.67-.77-1.18-1.67-1.53-2.63-.38-1.04-.56-2.15-.55-3.25,0-1.1.18-2.2.55-3.23.34-.96.86-1.85,1.53-2.62.64-.74,1.43-1.34,2.31-1.76.91-.43,1.91-.65,2.92-.64,1.76-.07,3.43.73,4.49,2.13v-1.7ZM511.08,100.92c0-.49-.08-.98-.25-1.44-.16-.42-.39-.81-.7-1.14-.3-.32-.66-.57-1.06-.75-.43-.18-.89-.27-1.35-.27-.47,0-.94.09-1.37.27-.4.18-.76.43-1.05.76-.3.33-.53.72-.68,1.15-.32.92-.32,1.92,0,2.84.15.42.38.81.68,1.14.29.32.65.58,1.05.76.43.19.9.28,1.37.27.46,0,.92-.09,1.35-.27.4-.18.76-.43,1.06-.75.3-.33.54-.72.7-1.14.17-.46.25-.95.25-1.44M542.86,94.2c-.53-.51-1.16-.9-1.85-1.15-.78-.27-1.6-.41-2.43-.4-1-.02-2,.2-2.9.63-.87.44-1.59,1.14-2.07,1.99-.46-.82-1.15-1.49-1.98-1.94-.86-.46-1.83-.69-2.8-.68-.95-.02-1.89.17-2.75.57-.81.41-1.47,1.04-1.92,1.82v-1.97h-4.8v15.69h5.01v-8.44c0-.45.06-.9.2-1.33.12-.34.31-.66.55-.93.23-.24.5-.42.81-.54.31-.12.65-.18.98-.18.69-.04,1.35.23,1.82.74.48.61.71,1.38.66,2.15v8.53h5v-8.44c-.01-.45.06-.9.21-1.33.12-.34.31-.66.55-.93.22-.24.5-.43.81-.54.31-.12.64-.18.97-.18.69-.04,1.37.23,1.84.74.47.61.71,1.38.66,2.15v8.53h5v-10.3c.01-.83-.13-1.66-.41-2.44-.25-.69-.65-1.31-1.17-1.83M563.65,93.09v15.69h-4.84v-1.7c-1.07,1.4-2.75,2.19-4.51,2.11-1,0-1.99-.21-2.89-.64-.88-.42-1.67-1.02-2.31-1.76-.66-.78-1.18-1.67-1.53-2.63-.37-1.04-.56-2.15-.55-3.25,0-1.1.18-2.19.55-3.23.34-.96.86-1.85,1.53-2.62.64-.74,1.43-1.34,2.31-1.76.91-.43,1.91-.65,2.91-.64,1.76-.07,3.43.72,4.49,2.13v-1.7h4.84ZM558.86,100.92c0-.49-.08-.98-.25-1.44-.16-.42-.39-.81-.69-1.14-.3-.32-.66-.57-1.07-.75-.43-.18-.89-.27-1.35-.27-.47,0-.93.09-1.36.27-.4.18-.76.43-1.05.76-.3.34-.53.72-.68,1.15-.32.92-.32,1.92,0,2.84.15.42.38.81.68,1.14.29.32.65.58,1.05.76.43.19.9.28,1.36.27.91.01,1.79-.36,2.42-1.02.3-.33.54-.72.69-1.14.17-.46.25-.95.25-1.44M446.25,138.5h-5.69l-1.69-4.7h-8.89l-1.7,4.7h-5.58l8.59-22.38h6.38l8.58,22.38ZM437.13,128.98l-2.72-7.54-2.72,7.54h5.43ZM452.81,115.86c-.27-.28-.59-.49-.95-.64-.76-.3-1.6-.3-2.36,0-.35.15-.67.37-.94.64-.27.27-.49.59-.63.95-.16.37-.24.78-.23,1.18,0,.79.31,1.55.87,2.11.27.27.59.48.94.63.76.3,1.6.3,2.36,0,.35-.15.68-.36.95-.63.27-.27.49-.59.63-.95.16-.37.24-.76.23-1.17,0-.8-.31-1.56-.87-2.13M448.23,139.22c.04.39-.07.78-.3,1.09-.2.21-.47.32-.76.32-.18,0-.36-.01-.54-.04-.16-.03-.32-.07-.47-.12l-.49,4.43c.17.06.34.11.51.16.2.05.41.09.63.12s.44.06.65.08.42.03.6.03c.72.01,1.44-.12,2.11-.38.61-.25,1.17-.63,1.61-1.12.47-.52.82-1.13,1.04-1.8.25-.79.38-1.61.36-2.44v-16.73h-4.99v16.41ZM467.68,122.82h4.84v15.68h-4.84v-1.69c-.49.63-1.11,1.15-1.82,1.52-.83.42-1.76.62-2.69.59-1,0-2-.21-2.9-.64-.88-.42-1.67-1.02-2.31-1.76-.67-.78-1.18-1.67-1.53-2.63-.38-1.04-.56-2.15-.55-3.26,0-1.1.18-2.19.55-3.23.34-.96.86-1.85,1.53-2.62.64-.74,1.43-1.34,2.31-1.76.91-.43,1.91-.65,2.92-.64,1.76-.07,3.44.72,4.49,2.13v-1.7ZM467.73,130.65c0-.49-.08-.98-.25-1.44-.16-.42-.39-.81-.7-1.14-.3-.32-.66-.57-1.06-.75-.87-.36-1.85-.36-2.72,0-.4.18-.76.43-1.06.76-.3.33-.53.72-.68,1.14-.32.92-.32,1.92,0,2.84.15.42.38.81.68,1.14.29.33.66.59,1.06.76.87.36,1.85.36,2.72,0,.4-.18.76-.43,1.06-.75.3-.33.54-.72.7-1.14.17-.46.25-.95.25-1.44M489.44,123.94c-.5-.5-1.1-.9-1.76-1.15-.7-.27-1.45-.41-2.2-.4-.95-.02-1.89.17-2.75.57-.81.41-1.47,1.04-1.92,1.82v-1.97h-4.79v15.68h5v-8.44c0-.45.06-.9.2-1.32.12-.34.3-.66.55-.93.23-.24.5-.42.81-.55.31-.12.65-.18.98-.18.69-.04,1.36.24,1.83.74.47.61.71,1.38.66,2.15v8.52h5v-10.29c.01-.83-.13-1.66-.43-2.44-.26-.68-.66-1.31-1.17-1.83M502.94,128.64l-1.15-.18c-.62-.08-1.23-.21-1.84-.37-.46-.13-.69-.36-.69-.69,0-.29.16-.56.42-.7.44-.21.92-.3,1.4-.26.43,0,.85.04,1.27.11.44.07.88.15,1.33.26.45.11.89.24,1.33.39.43.15.85.3,1.23.46l1.39-3.9c-.64-.25-1.23-.45-1.78-.62-.53-.17-1.06-.31-1.61-.42-.53-.11-1.06-.18-1.59-.23-.54-.05-1.12-.07-1.77-.07-.97-.01-1.93.1-2.86.35-.77.2-1.5.55-2.13,1.03-.57.43-1.03,1-1.33,1.64-.31.7-.47,1.46-.45,2.22-.07,1.25.42,2.47,1.34,3.32.9.8,2.29,1.34,4.19,1.62l.91.13c.65.08,1.28.23,1.9.43.38.15.57.38.57.69,0,.34-.2.64-.51.77-.53.2-1.11.29-1.68.26-1.01.01-2.02-.12-3-.38-.89-.25-1.74-.62-2.53-1.09l-1.75,3.87c.48.3.98.55,1.51.74.58.21,1.17.38,1.77.51.64.14,1.29.24,1.94.3.67.06,1.34.1,2.01.1,1.03.01,2.06-.11,3.06-.37.82-.22,1.6-.59,2.29-1.09.6-.46,1.09-1.05,1.42-1.73.33-.72.5-1.51.49-2.31.05-1.2-.42-2.37-1.3-3.19-1.09-.89-2.43-1.44-3.83-1.57M510.71,138.5h5.01v-15.68h-5v15.68Z"/>
      </g>
    </g>
  </g>
  <g>
    <g>
      <polygon class="st1" points="655.37 156.57 671.11 147.47 655.43 138.4 655.42 120.62 701.92 147.46 655.42 174.31 655.37 156.57"/>
      <polygon class="st16" points="655.43 138.4 671.11 147.47 655.37 156.57 631.31 170.46 631.31 124.48 655.43 138.4"/>
    </g>
    <g>
      <path class="st16" d="M763.8,31.07c.49,1.58.64,3.09.47,4.68-.2,3.4-2.26,6.21-5.35,7.58-1.41.61-2.87.98-4.45.99l-8.11.02V9.82s8.84.06,8.84.06c3.46.02,6.31,2.04,7.62,5.19,1.79,4.46,1.3,9.4-3.26,11.57,2.09.89,3.51,2.37,4.24,4.43ZM756.37,22.59c.81-1.03.9-2.23.87-3.43-.05-2.2-1.74-3.8-4.02-3.6v8.4c1.14-.05,2.31-.47,3.15-1.37ZM756.74,36.74c1.2-1.82,1.08-4.33-.22-6-.78-1-2.04-1.36-3.3-1.43v9.07c1.38-.06,2.72-.45,3.51-1.65Z"/>
      <g>
        <path class="st16" d="M737.97,44.32l-6.48.02-8.15-19.95.09,2.77v17.18s-6.87,0-6.87,0V9.83s6.51,0,6.51,0l8.04,19.68-.13-3.13V9.83s6.99,0,6.99,0v34.5ZM731.23,29.51v.1s0,.1,0,.1v.1s0-.1,0-.1v-.2Z"/>
        <polygon class="st3" points="731.23 29.51 731.24 29.61 731.24 29.71 731.23 29.81 731.23 29.71 731.23 29.61 731.23 29.51"/>
      </g>
      <path class="st3" d="M756.74,36.74c-.79,1.2-2.13,1.59-3.51,1.65v-9.07c1.25.07,2.51.42,3.29,1.43,1.3,1.67,1.42,4.18.22,6Z"/>
      <path class="st3" d="M756.37,22.59c-.84.9-2.01,1.32-3.14,1.37v-8.4c2.27-.2,3.96,1.4,4.01,3.6.03,1.2-.06,2.4-.87,3.43Z"/>
      <polygon class="st16" points="679.4 44.28 672.52 44.35 672.52 16.21 667.2 16.18 667.2 9.82 684.7 9.82 684.7 16.2 679.4 16.21 679.4 44.28"/>
    </g>
    <g>
      <g>
        <path class="st16" d="M672.75,85.19c-1.78,5.29-5.69,9.26-10.86,11.18-2.89,1.08-5.85,1.54-8.96,1.61l-4.16-.14v21.13s-17.46,0-17.46,0V54.48s17.16.02,17.16.02c3.86,0,7.53.32,11.18,1.4,10.02,2.85,14.83,11.73,14.41,21.85-.11,2.58-.47,4.94-1.31,7.44ZM655.9,79.17c.9-2.47.67-5.14-.57-7.36-1.09-1.95-3.02-3.18-5.22-3.14l-1.35.02v14.71c3.18.16,6.02-1.14,7.13-4.23Z"/>
        <path class="st3" d="M655.9,79.17c-1.12,3.08-3.95,4.39-7.13,4.23v-14.71s1.34-.02,1.34-.02c2.2-.04,4.14,1.19,5.22,3.14,1.24,2.22,1.46,4.89.57,7.36Z"/>
      </g>
      <path class="st16" d="M655.52,44.81c-5.9.76-10.25-2.94-11.08-8.57l5.73-1.58c.22,1.03.45,2.04,1.08,2.9.86,1.26,2.4,1.69,3.76,1.02.6-.38,1.03-.95,1.16-1.67.87-4.65-4.75-6.98-8.22-10.57-2.26-2.34-3.34-5.3-3.05-8.56.46-5.25,4.04-8.68,9.36-8.45,4.85.21,7.5,3.36,8.78,7.83l-5.27,2.05c-.17-.87-.37-1.58-.82-2.36-.83-1.45-3.09-2-4.25-.63-1.24,1.45-.73,3.57.45,4.9,1.72,1.94,4.39,3.37,6.63,5.69s3.38,5.16,3.3,8.35c-.03,1.49-.2,2.87-.69,4.26-1.07,3.02-3.6,4.98-6.87,5.4Z"/>
      <g>
        <rect class="st16" x="631.31" y="9.82" width="6.9" height="34.51"/>
        <circle class="st16" cx="634.78" cy="3.47" r="3.47"/>
      </g>
    </g>
    <g>
      <path class="st16" d="M785.46,34.89l.03-25.07h6.88s-.04,26.93-.04,26.93c0,3.3-1.85,6.02-4.9,7.2s-6.81,1.28-10.03.2c-3.36-1.13-5.34-3.98-5.5-7.5l-.02-26.83h6.91s0,24.26,0,24.26c0,2.49.79,4.61,3.3,4.56.93-.02,1.93-.18,2.53-.98.55-.74.85-1.68.86-2.78Z"/>
      <polygon class="st16" points="814.76 37.82 814.79 44.32 800.78 44.34 800.78 9.82 807.61 9.82 807.61 37.82 814.76 37.82"/>
      <g>
        <path class="st16" d="M814.78,54.48v64.48s-16.68.03-16.68.03l-6.93-18.39-5.96-17.62.85,16.9.04,19.1h-16.68s0-64.5,0-64.5h16.67s9.38,24.43,9.38,24.43l4.25,13.04-.67-7.08-.93-13.06v-17.34s16.67,0,16.67,0ZM785.2,82.66c-.02-.19-.22-.13-.18.03-.05.33.3.25.18-.03ZM799.9,92.16c-.02-.19-.22-.13-.18.03-.05.33.3.25.18-.03Z"/>
        <path class="st3" d="M785.2,82.66c.12.28-.23.36-.18.03-.04-.16.16-.22.18-.03Z"/>
        <path class="st3" d="M799.9,92.16c.12.28-.23.36-.18.03-.04-.16.16-.22.18-.03Z"/>
      </g>
    </g>
    <g>
      <path class="st16" d="M745.1,110.79l-11.64-.03-1.45,8.22-18.03-.03,15.56-64.48h21.3s13.63,64.48,13.63,64.48l-18.03.03-1.34-8.19ZM735.79,96.96h7.26c-1.36-8.79-2.39-17.34-3.24-26.15l-.94,7.39-3.08,18.75Z"/>
      <path class="st3" d="M735.79,96.96l3.08-18.75.94-7.39c.85,8.81,1.88,17.36,3.24,26.16h-7.26Z"/>
    </g>
    <g>
      <path class="st16" d="M816.66,155.68c-1.48,5.78-5.16,10.2-11.43,10.02-11.59-.33-13.59-15.09-11.81-24.47,1.24-6.54,5.02-12.07,12.11-11.99,6.07.07,9.66,4.37,11.14,9.99s1.38,11.05,0,16.45ZM807.98,153.09c.32-1.95.27-3.86.28-5.85.01-3.13-.06-9.91-3.24-9.7-3.55.23-2.82,10.64-2.49,14.29.2,2.18.58,5.4,2.55,5.58s2.57-2.31,2.9-4.32Z"/>
      <path class="st16" d="M760.91,140.36c2.08,9.59.23,25.74-11.79,25.33-3.49-.12-6.59-1.63-8.63-4.5-1.25-1.76-2.12-3.65-2.67-5.79-1.31-5.11-1.4-10.45-.13-15.57,1.47-5.94,5.16-10.52,11.57-10.59,6.66-.07,10.31,4.99,11.64,11.12ZM752.03,152.36c.31-3.28.32-6.53,0-9.81-.21-2.17-1.01-5.08-2.98-5.03-3.94.1-2.84,12.58-2.3,16.52.23,1.67,1.1,3.49,2.59,3.36,1.79-.15,2.5-3,2.69-5.04Z"/>
      <path class="st16" d="M781.71,164.25c-5.13,2.49-11.07,1.55-16.04-1.3l1.15-8.39c3,1.73,6.58,3.18,9.86,1.99,1.18-.43,2.06-1.33,2.35-2.38.37-1.3.12-2.6-.8-3.54-.83-.78-1.88-1.11-3.02-1.31-2.63-.34-5.17.1-7.82,1.11l2.68-20.54h17.53s0,8.29,0,8.29h-9.99s-.69,3.94-.69,3.94c4.69-.61,8.93,1.77,10.78,6.01,2.66,6.09-.01,13.21-6.01,16.12Z"/>
      <path class="st16" d="M708.68,165.03l10.48-14.04c1.19-1.6,2.24-3.13,3.15-4.88,1.2-2.31,2.35-5.65,1.24-7.87-.36-.73-1.04-1.15-1.81-1.13-2.02.07-2.31,3.23-2.11,5.58h-9.25c-.16-1.87.02-3.61.51-5.31,1.49-5.16,6.09-8.22,11.37-8.14,5.21.08,9.59,3.29,10.74,8.48.63,2.83.36,5.72-.66,8.47-.79,2.12-1.91,3.97-3.28,5.78-1.45,1.91-3.07,3.54-4.82,5.22l8.6-.24v8.12s-24.16-.03-24.16-.03Z"/>
      <path class="st3" d="M807.98,153.09c-.33,2.01-1.03,4.49-2.9,4.32-1.97-.18-2.36-3.4-2.55-5.58-.33-3.65-1.06-14.07,2.49-14.29,3.19-.2,3.25,6.58,3.24,9.7,0,1.99.04,3.9-.28,5.85Z"/>
      <path class="st3" d="M752.03,152.36c-.19,2.04-.9,4.9-2.69,5.04-1.49.12-2.36-1.69-2.59-3.36-.54-3.94-1.64-16.41,2.3-16.52,1.97-.05,2.76,2.86,2.98,5.03.32,3.27.31,6.53,0,9.81Z"/>
    </g>
    <g>
      <polygon class="st16" points="710.56 103.47 710.58 118.98 680.1 118.97 680.09 54.48 697.56 54.47 697.55 103.46 710.56 103.47"/>
      <path class="st16" d="M702.12,38.55l-6.81-.02-1.24,5.78h-6.9s8.07-34.5,8.07-34.5h7.19s8.27,34.49,8.27,34.49l-7.29.04-1.29-5.79ZM696.35,33.16h4.73c-1.1-4.7-1.96-9.17-2.49-13.77l-.58,4.76-1.66,9.01Z"/>
      <path class="st3" d="M696.35,33.16l1.66-9.01.58-4.76c.53,4.6,1.39,9.07,2.49,13.77h-4.73Z"/>
    </g>
  </g>
  <line class="st7" x1="208.13" y1="0" x2="208.13" y2="174.31"/>
  <line class="st7" x1="597.48" y1="0" x2="597.48" y2="174.31"/>
</svg>